<svg width="96" height="96" xmlns="http://www.w3.org/2000/svg">
 <title/>

 <g>
  <title>background</title>
  <rect fill="none" id="canvas_background" height="402" width="582" y="-1" x="-1"/>
 </g>
 <g>
  <title>Layer 1</title>
  <path fill="#718096" id="svg_1" d="m90,15.574049l-24,0a6,6 0 0 0 0,12l9.5156,0l-21.5156,21.5156l-19.7578,-19.7578a5.9979,5.9979 0 0 0 -8.4844,0l-24,24a5.9994,5.9994 0 0 0 8.4844,8.4844l19.7578,-19.7578l19.7578,19.7578a5.9979,5.9979 0 0 0 8.4844,0l25.7578,-25.7578l0,9.5156a6,6 0 0 0 12,0l0,-24a5.9966,5.9966 0 0 0 -6,-6z"/>
 </g>
</svg>