<svg width="96" height="96" xmlns="http://www.w3.org/2000/svg">
 <title/>

 <g>
  <title>background</title>
  <rect fill="none" id="canvas_background" height="402" width="582" y="-1" x="-1"/>
 </g>
 <g>
  <title>Layer 1</title>
  <path fill="#718096" id="svg_1" d="m90,42a5.9966,5.9966 0 0 0 -6,6l0,9.5156l-25.7578,-25.7578a6.0429,6.0429 0 0 0 -6.9258,-1.125l-20.1328,10.0664l-20.9414,-20.9414a5.9994,5.9994 0 0 0 -8.4844,8.4844l24,24a6.0144,6.0144 0 0 0 6.9258,1.125l20.1328,-10.0664l22.6992,22.6992l-9.5156,0a6,6 0 0 0 0,12l24,0a5.9966,5.9966 0 0 0 6,-6l0,-24a5.9966,5.9966 0 0 0 -6,-6z"/>
 </g>
</svg>